<svg width="24" height="24" viewBox="0 0 24 24" fill="none" xmlns="http://www.w3.org/2000/svg">
<g clip-path="url(#clip0_1_1689)">
<path d="M20 16.5799C20 17.5133 19.7933 18.3999 19.38 19.2399C18.98 20.0399 18.42 20.7233 17.7 21.2899C16.98 21.8566 16.1733 22.2399 15.28 22.4399L14.64 20.5199C15.24 20.4266 15.7867 20.2066 16.28 19.8599C16.7733 19.5133 17.1667 19.0799 17.46 18.5599H15C14.64 18.5599 14.3067 18.4733 14 18.2999C13.6933 18.1266 13.45 17.8866 13.27 17.5799C13.09 17.2733 13 16.9333 13 16.5599V12.5599C13 12.1999 13.09 11.8666 13.27 11.5599C13.45 11.2533 13.6933 11.0099 14 10.8299C14.3067 10.6499 14.64 10.5599 15 10.5599H17.94C17.78 9.26661 17.3267 8.08661 16.58 7.01994C15.8333 5.95327 14.8933 5.11327 13.76 4.49994C12.5867 3.87327 11.3333 3.55994 10 3.55994C8.66667 3.55994 7.41333 3.87327 6.24 4.49994C5.10667 5.11327 4.16667 5.95327 3.42 7.01994C2.67333 8.08661 2.22 9.26661 2.06 10.5599H5C5.36 10.5599 5.69333 10.6499 6 10.8299C6.30667 11.0099 6.55 11.2533 6.73 11.5599C6.91 11.8666 7 12.1999 7 12.5599V16.5599C7 16.9333 6.91 17.2733 6.73 17.5799C6.55 17.8866 6.30667 18.1266 6 18.2999C5.69333 18.4733 5.36 18.5599 5 18.5599H2C1.64 18.5599 1.30667 18.4733 1 18.2999C0.693333 18.1266 0.45 17.8866 0.27 17.5799C0.09 17.2733 0 16.9333 0 16.5599V11.5599C0 10.2133 0.26 8.91994 0.78 7.67994C1.28667 6.47994 2.00333 5.41994 2.93 4.49994C3.85667 3.57994 4.91333 2.86661 6.1 2.35994C7.34 1.82661 8.64 1.55994 10 1.55994C11.36 1.55994 12.66 1.82661 13.9 2.35994C15.0867 2.86661 16.1433 3.57994 17.07 4.49994C17.9967 5.41994 18.7133 6.47994 19.22 7.67994C19.74 8.91994 20 10.2133 20 11.5599V16.5799ZM18 16.5599V12.5599H15V16.5599H18ZM2 12.5599V16.5599H5V12.5599H2Z" fill="white"/>
</g>
<defs>
<clipPath id="clip0_1_1689">
<rect width="24" height="24" fill="white" transform="matrix(1 0 0 -1 0 24)"/>
</clipPath>
</defs>
</svg>
