<svg width="24" height="24" viewBox="0 0 24 24" fill="none" xmlns="http://www.w3.org/2000/svg">
<g clip-path="url(#clip0_1_1681)">
<path d="M2 12C2 12.1733 2.12 12.38 2.36 12.62C2.64 12.8867 3.03333 13.1467 3.54 13.4C4.23333 13.7467 5.05333 14.0167 6 14.21C6.94667 14.4033 7.94667 14.5 9 14.5C10.0533 14.5 11.0533 14.4033 12 14.21C12.9467 14.0167 13.7667 13.7467 14.46 13.4C14.9667 13.1467 15.36 12.8867 15.64 12.62C15.88 12.38 16 12.1733 16 12V9.82C15.16 10.34 14.14 10.7467 12.94 11.04C11.7 11.3467 10.3867 11.5 9 11.5C7.61333 11.5 6.3 11.3467 5.06 11.04C3.86 10.7467 2.84 10.34 2 9.82V12ZM16 14.82C15.16 15.34 14.14 15.7467 12.94 16.04C11.7 16.3467 10.3867 16.5 9 16.5C7.61333 16.5 6.3 16.3467 5.06 16.04C3.86 15.7467 2.84 15.34 2 14.82V17C2 17.1733 2.12 17.38 2.36 17.62C2.64 17.8867 3.03333 18.1467 3.54 18.4C4.23333 18.7467 5.05333 19.0167 6 19.21C6.94667 19.4033 7.94667 19.5 9 19.5C10.0533 19.5 11.0533 19.4033 12 19.21C12.9467 19.0167 13.7667 18.7467 14.46 18.4C14.9667 18.1467 15.36 17.8867 15.64 17.62C15.88 17.38 16 17.1733 16 17V14.82ZM0 17V7C0 6.18667 0.406667 5.42667 1.22 4.72C2.02 4.05333 3.1 3.52 4.46 3.12C5.86 2.70667 7.37333 2.5 9 2.5C10.6267 2.5 12.14 2.70667 13.54 3.12C14.9 3.52 15.98 4.05333 16.78 4.72C17.5933 5.42667 18 6.18667 18 7V17C18 17.8133 17.5933 18.5733 16.78 19.28C15.98 19.9467 14.9 20.48 13.54 20.88C12.14 21.2933 10.6267 21.5 9 21.5C7.37333 21.5 5.86 21.2933 4.46 20.88C3.1 20.48 2.02 19.9467 1.22 19.28C0.406667 18.5733 0 17.8133 0 17ZM9 9.5C10.0533 9.5 11.0533 9.40333 12 9.21C12.9467 9.01667 13.7667 8.74667 14.46 8.4C14.9667 8.14667 15.36 7.88667 15.64 7.62C15.88 7.38 16 7.17333 16 7C16 6.82667 15.88 6.62 15.64 6.38C15.36 6.11333 14.9667 5.85333 14.46 5.6C13.7667 5.25333 12.9467 4.98333 12 4.79C11.0533 4.59667 10.0533 4.5 9 4.5C7.94667 4.5 6.94667 4.59667 6 4.79C5.05333 4.98333 4.23333 5.25333 3.54 5.6C3.03333 5.85333 2.64 6.11333 2.36 6.38C2.12 6.62 2 6.82667 2 7C2 7.17333 2.12 7.38 2.36 7.62C2.64 7.88667 3.03333 8.14667 3.54 8.4C4.23333 8.74667 5.05333 9.01667 6 9.21C6.94667 9.40333 7.94667 9.5 9 9.5Z" fill="white"/>
</g>
<defs>
<clipPath id="clip0_1_1681">
<rect width="24" height="24" fill="white" transform="matrix(1 0 0 -1 0 24)"/>
</clipPath>
</defs>
</svg>
