<svg width="24" height="24" viewBox="0 0 24 24" fill="none" xmlns="http://www.w3.org/2000/svg">
<g clip-path="url(#clip0_1_1685)">
<path d="M3.76 16.24H18V4.23999H2V17.64L3.76 16.24ZM4.46 18.24L0 21.74V3.23999C0 2.97332 0.0966667 2.74332 0.29 2.54999C0.483333 2.35666 0.72 2.25332 1 2.23999H19C19.28 2.23999 19.5167 2.33999 19.71 2.53999C19.9033 2.73999 20 2.97332 20 3.23999V17.24C20 17.52 19.9033 17.76 19.71 17.96C19.5167 18.16 19.28 18.2533 19 18.24H4.46ZM9 13.24H11V15.24H9V13.24ZM6.56 8.05999C6.66667 7.52666 6.88667 7.04666 7.22 6.61999C7.55333 6.19332 7.96 5.85666 8.44 5.60999C8.92 5.36332 9.44 5.23999 10 5.23999C10.64 5.25332 11.2267 5.41666 11.76 5.72999C12.2933 6.04332 12.7167 6.46666 13.03 6.99999C13.3433 7.53332 13.5 8.11666 13.5 8.74999C13.5 9.38332 13.3433 9.96666 13.03 10.5C12.7167 11.0333 12.2933 11.46 11.76 11.78C11.2267 12.1 10.64 12.26 10 12.26H9V10.24H10C10.4133 10.24 10.7667 10.0967 11.06 9.80999C11.3533 9.52332 11.5 9.16999 11.5 8.74999C11.5 8.32999 11.3533 7.97666 11.06 7.68999C10.7667 7.40332 10.4133 7.25999 10 7.25999C9.64 7.25999 9.32333 7.37332 9.05 7.59999C8.77667 7.82666 8.6 8.11332 8.52 8.45999L6.56 8.05999Z" fill="white"/>
</g>
<defs>
<clipPath id="clip0_1_1685">
<rect width="24" height="24" fill="white" transform="matrix(1 0 0 -1 0 24)"/>
</clipPath>
</defs>
</svg>
