<svg width="24" height="24" viewBox="0 0 24 24" fill="none" xmlns="http://www.w3.org/2000/svg">
<g clip-path="url(#clip0_1_1672)">
<path d="M6.36 10.68C6.82667 11.5067 7.39667 12.2567 8.07 12.93C8.74333 13.6033 9.49333 14.1733 10.32 14.64L11.2 13.4C11.3467 13.1867 11.5433 13.0533 11.79 13C12.0367 12.9467 12.2733 12.98 12.5 13.1C13.9267 13.8867 15.4533 14.34 17.08 14.46C17.3333 14.4867 17.55 14.5933 17.73 14.78C17.91 14.9667 18 15.1933 18 15.46V19.92C18 20.1733 17.9133 20.3967 17.74 20.59C17.5667 20.7833 17.3533 20.8933 17.1 20.92C16.5667 20.9733 16.0333 21 15.5 21C13.3933 21 11.38 20.5933 9.46 19.78C7.60667 18.9933 5.96667 17.8867 4.54 16.46C3.11333 15.0333 2.00667 13.3933 1.22 11.54C0.406667 9.62 0 7.60667 0 5.5C0 4.96667 0.0266667 4.43333 0.08 3.9C0.106667 3.64667 0.216667 3.43333 0.41 3.26C0.603333 3.08667 0.826667 3 1.08 3H5.54C5.80667 3 6.03333 3.09 6.22 3.27C6.40667 3.45 6.51333 3.66667 6.54 3.92C6.66 5.54667 7.11333 7.07333 7.9 8.5C8.02 8.72667 8.05333 8.96333 8 9.21C7.94667 9.45667 7.81333 9.65333 7.6 9.8L6.36 10.68ZM3.84 10.02L5.74 8.66C5.20667 7.5 4.84 6.28 4.64 5H2V5.5C2 7.32667 2.35333 9.08 3.06 10.76C3.74 12.3733 4.70333 13.8033 5.95 15.05C7.19667 16.2967 8.62667 17.26 10.24 17.94C11.92 18.6467 13.6733 19 15.5 19H16V16.36C14.72 16.16 13.5 15.7933 12.34 15.26L10.98 17.16C10.4333 16.9467 9.9 16.6933 9.38 16.4L9.32 16.38C8.34667 15.82 7.46 15.14 6.66 14.34C5.86 13.54 5.18 12.6533 4.62 11.68L4.6 11.62C4.30667 11.1 4.05333 10.5667 3.84 10.02Z" fill="white"/>
</g>
<defs>
<clipPath id="clip0_1_1672">
<rect width="24" height="24" fill="white" transform="matrix(1 0 0 -1 0 24)"/>
</clipPath>
</defs>
</svg>
