<svg width="40" height="40" viewBox="0 0 40 40" fill="none" xmlns="http://www.w3.org/2000/svg">
<path d="M30 25C28.2337 25 26.6104 25.6109 25.3289 26.6324L17.3222 21.6282C17.5593 20.5557 17.5593 19.4443 17.3222 18.3717L25.3289 13.3675C26.6104 14.3891 28.2337 15 30 15C34.1421 15 37.5 11.6421 37.5 7.5C37.5 3.35789 34.1421 0 30 0C25.8579 0 22.5 3.35789 22.5 7.5C22.5 8.05922 22.5617 8.60391 22.6778 9.1282L14.6711 14.1324C13.3896 13.1109 11.7662 12.5 10 12.5C5.85789 12.5 2.5 15.8579 2.5 20C2.5 24.1421 5.85789 27.5 10 27.5C11.7662 27.5 13.3896 26.8891 14.6711 25.8676L22.6778 30.8718C22.5595 31.4064 22.4998 31.9524 22.5 32.5C22.5 36.6421 25.8579 40 30 40C34.1421 40 37.5 36.6421 37.5 32.5C37.5 28.3579 34.1421 25 30 25Z" fill="#288ED7"/>
</svg>
